Coordinates
version=1
nRows=10
nColumns=40
inDegrees=yes

Units are S.I. units (second, meters, Newtons, ...)
Angles are in degrees.

endheader
time	pelvis_tilt	pelvis_list	pelvis_rotation	pelvis_tx	pelvis_ty	pelvis_tz	hip_flexion_r	hip_adduction_r	hip_rotation_r	knee_angle_r	knee_angle_r_beta	ankle_angle_r	subtalar_angle_r	mtp_angle_r	hip_flexion_l	hip_adduction_l	hip_rotation_l	knee_angle_l	knee_angle_l_beta	ankle_angle_l	subtalar_angle_l	mtp_angle_l	lumbar_extension	lumbar_bending	lumbar_rotation	arm_flex_r	arm_add_r	arm_rot_r	elbow_flex_r	pro_sup_r	wrist_flex_r	wrist_dev_r	arm_flex_l	arm_add_l	arm_rot_l	elbow_flex_l	pro_sup_l	wrist_flex_l	wrist_dev_l
     37.72500000	     -5.89780944	     -5.12284928	      2.82027333	      0.94097564	      0.93208800	      0.48780523	      8.81347189	      4.89060158	    -18.98694273	     10.43235703	     10.43235703	      9.17115569	      2.25246476	     -4.03525900	     36.45998855	    -11.72937093	     -0.86828855	     50.86762710	     50.86762710	      7.85543322	    -17.39548015	     10.08793632	     -8.80782810	      6.02373927	      3.92078856	     23.15600854	    -15.53935867	     -4.06193264	     43.07482835	     45.62811199	      0.00000000	      0.00000000	      9.29799365	     -6.57758432	      3.21955595	     26.14545472	     45.41378400	      0.00000000	      0.00000000
     37.73657143	     -6.15761604	     -4.98615505	      2.96374500	      0.93913698	      0.93184922	      0.48764626	      8.50331857	      4.81950962	    -18.96969156	      9.98852885	      9.98852885	      9.29427836	      2.29371917	     -4.09585165	     37.03763657	    -11.19399148	     -0.88381698	     47.29621764	     47.29621764	      8.01255934	    -16.76857827	     10.16563680	     -8.82767154	      5.78043900	      3.84133993	     25.26625941	    -15.67702372	     -4.18654820	     44.68326116	     45.58720104	      0.00000000	      0.00000000	      8.00908507	     -6.50709853	      3.48197789	     25.30319729	     45.35094744	      0.00000000	      0.00000000
     37.74814286	     -6.42874153	     -4.85207015	      3.10106214	      0.93737597	      0.93142912	      0.48735135	      8.24507180	      4.72848692	    -18.94408245	      9.63997974	      9.63997974	      9.48568481	      2.27962818	     -4.19420177	     37.47586274	    -10.62308194	     -0.82946608	     43.53001302	     43.53001302	      8.21594193	    -15.75753371	     10.15605373	     -8.81304341	      5.53779123	      3.80616209	     27.27680268	    -15.81894929	     -4.30854160	     46.32977482	     45.54419864	      0.00000000	      0.00000000	      6.74838551	     -6.46349099	      3.72205045	     24.55190530	     45.29006823	      0.00000000	      0.00000000
     37.75971429	     -6.76670918	     -5.06594132	      3.27769804	      0.93564711	      0.93048413	      0.48694864	      8.20692983	      4.95312467	    -19.01119391	      9.55572017	      9.55572017	      9.74344909	      2.19306953	     -4.33769564	     38.08757603	    -10.29300396	     -0.32308389	     39.94216753	     39.94216753	      8.63606751	    -14.40505905	     10.30483996	     -8.62396824	      5.76246193	      4.26183613	     29.22909012	    -16.50712319	     -4.51597499	     47.31050928	     45.52998141	      0.00000000	      0.00000000	      5.64793177	     -6.24506734	      3.80305205	     24.13314554	     45.25643272	      0.00000000	      0.00000000
     37.77128571	     -6.93466087	     -4.64322816	      3.41712932	      0.93426615	      0.93018506	      0.48627278	      7.77539192	      4.54223331	    -18.88418997	      9.17902394	      9.17902394	      9.99607883	      2.14052163	     -4.42516061	     37.96211335	     -9.45373370	     -0.46439110	     35.79383781	     35.79383781	      8.74324073	    -12.67623549	     10.21608481	     -8.73814995	      5.16978034	      3.54861980	     31.23960590	    -16.03147126	     -4.59507787	     49.79092244	     45.45396592	      0.00000000	      0.00000000	      4.20652163	     -6.37306872	      4.11526372	     23.25726623	     45.17613180	      0.00000000	      0.00000000
     37.78285714	     -7.18018400	     -4.65487202	      3.57325745	      0.93293776	      0.92926765	      0.48560959	      7.56383194	      4.55847971	    -18.83150639	      9.02244289	      9.02244289	     10.24127605	      1.99942892	     -4.77944460	     37.96074237	     -8.97083531	     -0.18324562	     31.72824157	     31.72824157	      7.84874593	    -11.30504175	      7.54566589	     -8.75001624	      5.14483070	      4.16271607	     31.57278334	    -17.01865083	     -4.90245548	     54.96975302	     45.30837675	      0.00000000	      0.00000000	      3.29149308	     -6.59087743	      7.40896173	     22.92613950	     44.57332305	      0.00000000	      0.00000000
     37.79442857	     -7.33140448	     -4.59262378	      3.76382868	      0.93189390	      0.92843129	      0.48477768	      7.24384294	      4.48586643	    -18.81134628	      8.91847177	      8.91847177	     10.62599685	      1.84195389	     -4.88393114	     37.92130512	     -8.45969820	     -0.01756042	     28.18609049	     28.18609049	      8.16755074	     -9.37647314	      7.99294861	     -8.72896879	      5.02608956	      3.89047910	     33.57036826	    -16.92136881	     -5.09545839	     56.55711704	     45.27255711	      0.00000000	      0.00000000	      1.91254814	     -6.56734336	      7.64840048	     22.49080519	     44.50720776	      0.00000000	      0.00000000
     37.80600000	     -7.49060655	     -4.56398284	      3.93569245	      0.93103948	      0.92750904	      0.48384258	      6.94867924	      4.43453751	    -18.74097109	      8.87074167	      8.87074167	     11.03977307	      1.66731728	     -4.97872089	     37.85171299	     -8.00703999	      0.03982429	     24.93989251	     24.93989251	      8.41231845	     -7.62734713	      8.54265246	     -8.67045605	      4.95759993	      3.63956445	     35.35215619	    -16.83776913	     -5.27604717	     58.31039231	     45.22934103	      0.00000000	      0.00000000	      0.61276581	     -6.59157877	      7.87563164	     22.17590798	     44.44155522	      0.00000000	      0.00000000
     37.81757143	     -7.59315787	     -4.54625067	      4.12011098	      0.93045793	      0.92656988	      0.48282085	      6.59744319	      4.39307581	    -18.65975787	      8.86985857	      8.86985857	     11.49381924	      1.44283835	     -5.02027227	     37.73533710	     -7.58810056	     -0.04844930	     22.16859157	     22.16859157	      8.68246406	     -6.15959245	      9.19514838	     -8.65319125	      4.89140113	      3.29629111	     36.96501094	    -16.64803238	     -5.46116731	     60.55056225	     45.16968998	      0.00000000	      0.00000000	     -0.73084180	     -6.63903141	      8.18789258	     22.01721030	     44.35619018	      0.00000000	      0.00000000
     37.82914286	     -7.70817870	     -4.60937727	      4.31471087	      0.93007136	      0.92552538	      0.48169540	      6.27431759	      4.43084418	    -18.57117192	      8.92609017	      8.92609017	     12.08416516	      1.17842026	     -4.68633938	     37.77037594	     -7.26081857	     -0.24464613	     20.12754415	     20.12754415	      9.18431193	     -5.01872539	     10.63913142	     -8.63532794	      4.95295408	      3.60106745	     37.47136307	    -17.16346816	     -6.02529136	     64.95855717	     45.06493421	      0.00000000	      0.00000000	     -2.11810467	     -6.92313140	      9.80711772	     23.07108728	     44.03055477	      0.00000000	      0.00000000
